<svg width="16" height="16" viewBox="0 0 16 16" fill="none" xmlns="http://www.w3.org/2000/svg">
<g clip-path="url(#clip0_136_1836)">
<path d="M8.16836 9.62388L2.33467 15.4576C1.8942 15.8981 1.17358 15.8916 0.725135 15.4431C0.276686 14.9947 0.270219 14.2741 0.71069 13.8336L6.54439 7.99991L0.71069 2.16621C0.270219 1.72574 0.276686 1.00513 0.725135 0.556678C1.17358 0.108229 1.8942 0.101762 2.33467 0.542233L8.16836 6.37593L14.0021 0.542233C14.4425 0.101762 15.1631 0.108229 15.6116 0.556678C16.06 1.00513 16.0665 1.72574 15.626 2.16621L9.79234 7.99991L15.626 13.8336C16.0665 14.2741 16.06 14.9947 15.6116 15.4431C15.1631 15.8916 14.4425 15.8981 14.0021 15.4576L8.16836 9.62388Z" fill="black"/>
</g>
<defs>
<clipPath id="clip0_136_1836">
<rect width="16" height="16" fill="white"/>
</clipPath>
</defs>
</svg>
